# xmcd
#
# Track frame offsets: 
#        150
#        13911
#        35759
#        47419
#        64963
#        75469
#        88515
#        96154
#        111689
#        122274
#        135807
#        147457
#        163481
#
# Disc length: 2363 seconds
#
# Revision: 0
# Processed by: cddbd v1.5PL3 Copyright (c) Steve Scherf et al.
# Submitted via: ExactAudioCopy v0.95a5
#
DISCID=b109390d
DTITLE=The Tennessee Gentlemen - From The Treehouse To The Lighthouse
DYEAR=2003
DGENRE=Bluegrass
TTITLE0=A Thousand Miles From Nowhere
TTITLE1=The Treehouse
TTITLE2=Loving You Is All I Want To Do
TTITLE3=Stay With Me
TTITLE4=Blues At Sundown
TTITLE5=Occasional Rose
TTITLE6=Mighty Fine
TTITLE7=Up This Hill And Down
TTITLE8=Red Rubber Ball
TTITLE9=Why You been Gone So Long
TTITLE10=Ribbon Of Darkness
TTITLE11=The Lighthouse
TTITLE12=Last Train To Clarksville
EXTD=
EXTT0=
EXTT1=
EXTT2=
EXTT3=
EXTT4=
EXTT5=
EXTT6=
EXTT7=
EXTT8=
EXTT9=
EXTT10=
EXTT11=
EXTT12=
PLAYORDER=
